ISO-10303-21;
HEADER;
FILE_DESCRIPTION (( 'STEP AP214' ),
    '1' );
FILE_NAME ('E2919382-AC3A-4934-A943-9E0B176996FA.STEP',
    '2026-05-01T13:56:29',
    ( '' ),
    ( '' ),
    'SwSTEP 2.0',
    'SolidWorks 2022',
    '' );
FILE_SCHEMA (( 'AUTOMOTIVE_DESIGN' ));
ENDSEC;

DATA;
#1 = LINE ( 'NONE', #7, #136 ) ;
#2 = SURFACE_STYLE_USAGE ( .BOTH. , #354 ) ;
#3 = EDGE_CURVE ( 'NONE', #474, #479, #363, .T. ) ;
#4 = EDGE_LOOP ( 'NONE', ( #349, #103, #344, #61 ) ) ;
#5 = CARTESIAN_POINT ( 'NONE',  ( -0.5200000000000000178, -0.2600000000000000089, 0.0000000000000000000 ) ) ;
#6 = ORIENTED_EDGE ( 'NONE', *, *, #172, .F. ) ;
#7 = CARTESIAN_POINT ( 'NONE',  ( -0.5000000000000000000, 0.2500000000000000000, 0.1250000000000000000 ) ) ;
#8 = EDGE_CURVE ( 'NONE', #15, #267, #24, .T. ) ;
#9 = ORIENTED_EDGE ( 'NONE', *, *, #241, .T. ) ;
#10 = APPLICATION_CONTEXT ( 'automotive_design' ) ;
#11 = CARTESIAN_POINT ( 'NONE',  ( -0.5200000000000000178, -0.2600000000000000089, 0.0000000000000000000 ) ) ;
#12 = VECTOR ( 'NONE', #248, 1000.000000000000000 ) ;
#13 = CARTESIAN_POINT ( 'NONE',  ( 0.5200000000000000178, 0.2500000000000000000, -0.005000000000000000104 ) ) ;
#14 = VECTOR ( 'NONE', #176, 1000.000000000000000 ) ;
#15 = VERTEX_POINT ( 'NONE', #154 ) ;
#16 = PLANE ( 'NONE',  #396 ) ;
#17 = CARTESIAN_POINT ( 'NONE',  ( 0.0000000000000000000, 0.0000000000000000000, 0.0000000000000000000 ) ) ;
#18 = EDGE_LOOP ( 'NONE', ( #130, #296, #519, #351 ) ) ;
#19 = ADVANCED_FACE ( 'NONE', ( #322 ), #490, .T. ) ;
#20 = PLANE ( 'NONE',  #262 ) ;
#21 = ORIENTED_EDGE ( 'NONE', *, *, #524, .T. ) ;
#22 = ORIENTED_EDGE ( 'NONE', *, *, #165, .F. ) ;
#23 = ORIENTED_EDGE ( 'NONE', *, *, #271, .T. ) ;
#24 = LINE ( 'NONE', #369, #170 ) ;
#25 = EDGE_LOOP ( 'NONE', ( #407, #353, #22, #185 ) ) ;
#26 = EDGE_CURVE ( 'NONE', #527, #302, #82, .T. ) ;
#27 = FACE_OUTER_BOUND ( 'NONE', #63, .T. ) ;
#28 = FACE_OUTER_BOUND ( 'NONE', #273, .T. ) ;
#29 = STYLED_ITEM ( 'NONE', ( #371 ), #146 ) ;
#30 = SURFACE_SIDE_STYLE ('',( #413 ) ) ;
#31 = DIRECTION ( 'NONE',  ( 0.0000000000000000000, 1.000000000000000000, 0.0000000000000000000 ) ) ;
#32 = MANIFOLD_SOLID_BREP ( 'Imported1', #468 ) ;
#33 = ADVANCED_FACE ( 'NONE', ( #251 ), #264, .T. ) ;
#34 = SURFACE_STYLE_FILL_AREA ( #327 ) ;
#35 = FACE_OUTER_BOUND ( 'NONE', #400, .T. ) ;
#36 = CARTESIAN_POINT ( 'NONE',  ( -0.2500000000000000000, -0.2500000000000000000, 0.1250000000000000000 ) ) ;
#37 = CARTESIAN_POINT ( 'NONE',  ( 0.5000000000000000000, 0.0000000000000000000, 0.0000000000000000000 ) ) ;
#38 = VECTOR ( 'NONE', #31, 1000.000000000000000 ) ;
#39 = DIRECTION ( 'NONE',  ( 0.0000000000000000000, 0.0000000000000000000, 1.000000000000000000 ) ) ;
#40 = STYLED_ITEM ( 'NONE', ( #408 ), #448 ) ;
#41 = EDGE_CURVE ( 'NONE', #92, #113, #336, .T. ) ;
#42 = FILL_AREA_STYLE ('',( #462 ) ) ;
#43 = SURFACE_STYLE_USAGE ( .BOTH. , #423 ) ;
#44 =( NAMED_UNIT ( * ) SI_UNIT ( $, .STERADIAN. ) SOLID_ANGLE_UNIT ( ) );
#45 = CARTESIAN_POINT ( 'NONE',  ( -0.2500000000000000000, 0.0000000000000000000, 0.2299999999999999822 ) ) ;
#46 = ORIENTED_EDGE ( 'NONE', *, *, #199, .T. ) ;
#47 =( LENGTH_UNIT ( ) NAMED_UNIT ( * ) SI_UNIT ( .MILLI., .METRE. ) );
#48 = FILL_AREA_STYLE ('',( #546 ) ) ;
#49 = DIRECTION ( 'NONE',  ( -1.000000000000000000, -0.0000000000000000000, -0.0000000000000000000 ) ) ;
#50 = DIRECTION ( 'NONE',  ( -0.0000000000000000000, -0.0000000000000000000, 1.000000000000000000 ) ) ;
#51 = COLOUR_RGB ( '',0.3529411764705882026, 0.3529411764705882026, 0.3529411764705882026 ) ;
#52 = VECTOR ( 'NONE', #533, 1000.000000000000000 ) ;
#53 = EDGE_CURVE ( 'NONE', #525, #373, #460, .T. ) ;
#54 = CARTESIAN_POINT ( 'NONE',  ( -0.2500000000000000000, 0.0000000000000000000, 0.2500000000000000000 ) ) ;
#55 = ORIENTED_EDGE ( 'NONE', *, *, #76, .T. ) ;
#56 = DIRECTION ( 'NONE',  ( 0.0000000000000000000, 0.0000000000000000000, 1.000000000000000000 ) ) ;
#57 = EDGE_CURVE ( 'NONE', #113, #261, #184, .T. ) ;
#58 = MECHANICAL_DESIGN_GEOMETRIC_PRESENTATION_REPRESENTATION (  '', ( #132 ), #67 ) ;
#59 = MECHANICAL_DESIGN_GEOMETRIC_PRESENTATION_REPRESENTATION (  '', ( #278 ), #404 ) ;
#60 = UNCERTAINTY_MEASURE_WITH_UNIT (LENGTH_MEASURE( 1.000000000000000082E-05 ), #287, 'distance_accuracy_value', 'NONE');
#61 = ORIENTED_EDGE ( 'NONE', *, *, #326, .F. ) ;
#62 = ORIENTED_EDGE ( 'NONE', *, *, #76, .F. ) ;
#63 = EDGE_LOOP ( 'NONE', ( #531, #197, #21, #486 ) ) ;
#64 = LINE ( 'NONE', #54, #439 ) ;
#65 = VERTEX_POINT ( 'NONE', #258 ) ;
#66 = CARTESIAN_POINT ( 'NONE',  ( 0.5000000000000000000, 0.0000000000000000000, 0.2500000000000000000 ) ) ;
#67 =( GEOMETRIC_REPRESENTATION_CONTEXT ( 3 ) GLOBAL_UNCERTAINTY_ASSIGNED_CONTEXT ( ( #530 ) ) GLOBAL_UNIT_ASSIGNED_CONTEXT ( ( #231, #473, #44 ) ) REPRESENTATION_CONTEXT ( 'NONE', 'WORKASPACE' ) );
#68 = MECHANICAL_DESIGN_GEOMETRIC_PRESENTATION_REPRESENTATION (  '', ( #40 ), #440 ) ;
#69 = ADVANCED_FACE ( 'NONE', ( #434 ), #16, .F. ) ;
#70 = ORIENTED_EDGE ( 'NONE', *, *, #3, .T. ) ;
#71 = CARTESIAN_POINT ( 'NONE',  ( 0.0000000000000000000, 0.2299999999999999822, 0.02000000000000000042 ) ) ;
#72 = DIRECTION ( 'NONE',  ( 1.000000000000000000, 0.0000000000000000000, 0.0000000000000000000 ) ) ;
#73 = DIRECTION ( 'NONE',  ( 1.000000000000000000, 0.0000000000000000000, 0.0000000000000000000 ) ) ;
#74 =( NAMED_UNIT ( * ) SI_UNIT ( $, .STERADIAN. ) SOLID_ANGLE_UNIT ( ) );
#75 = SURFACE_SIDE_STYLE ('',( #290 ) ) ;
#76 = EDGE_CURVE ( 'NONE', #469, #386, #134, .T. ) ;
#77 = PLANE ( 'NONE',  #498 ) ;
#78 = VECTOR ( 'NONE', #211, 1000.000000000000000 ) ;
#79 = DIRECTION ( 'NONE',  ( 0.0000000000000000000, -1.000000000000000000, 0.0000000000000000000 ) ) ;
#80 =( NAMED_UNIT ( * ) PLANE_ANGLE_UNIT ( ) SI_UNIT ( $, .RADIAN. ) );
#81 = CARTESIAN_POINT ( 'NONE',  ( -0.5200000000000000178, -0.2500000000000000000, -0.005000000000000000104 ) ) ;
#82 = LINE ( 'NONE', #342, #236 ) ;
#83 = LINE ( 'NONE', #97, #446 ) ;
#84 = DIRECTION ( 'NONE',  ( 0.0000000000000000000, 0.0000000000000000000, -1.000000000000000000 ) ) ;
#85 = VECTOR ( 'NONE', #484, 1000.000000000000000 ) ;
#86 = CARTESIAN_POINT ( 'NONE',  ( 0.2500000000000000000, 0.0000000000000000000, 0.02000000000000002817 ) ) ;
#87 = VECTOR ( 'NONE', #50, 1000.000000000000000 ) ;
#88 = SURFACE_STYLE_FILL_AREA ( #42 ) ;
#89 = DIRECTION ( 'NONE',  ( -0.0000000000000000000, -1.000000000000000000, -0.0000000000000000000 ) ) ;
#90 = ORIENTED_EDGE ( 'NONE', *, *, #345, .T. ) ;
#91 = APPLICATION_PROTOCOL_DEFINITION ( 'draft international standard', 'automotive_design', 1998, #521 ) ;
#92 = VERTEX_POINT ( 'NONE', #181 ) ;
#93 = CARTESIAN_POINT ( 'NONE',  ( 0.2500000000000000555, -0.2500000000000000000, 0.2500000000000000000 ) ) ;
#94 = EDGE_CURVE ( 'NONE', #113, #474, #350, .T. ) ;
#95 = ORIENTED_EDGE ( 'NONE', *, *, #507, .F. ) ;
#96 = COLOUR_RGB ( '',0.7529411764705882248, 0.7529411764705882248, 0.7529411764705882248 ) ;
#97 = CARTESIAN_POINT ( 'NONE',  ( 0.2500000000000001110, 0.0000000000000000000, 0.0000000000000000000 ) ) ;
#98 = ORIENTED_EDGE ( 'NONE', *, *, #94, .T. ) ;
#99 = DIRECTION ( 'NONE',  ( -1.000000000000000000, -0.0000000000000000000, -0.0000000000000000000 ) ) ;
#100 = PRODUCT_DEFINITION_CONTEXT ( 'detailed design', #10, 'design' ) ;
#101 = EDGE_CURVE ( 'NONE', #265, #105, #266, .T. ) ;
#102 = DIRECTION ( 'NONE',  ( -0.0000000000000000000, -1.000000000000000000, -0.0000000000000000000 ) ) ;
#103 = ORIENTED_EDGE ( 'NONE', *, *, #291, .F. ) ;
#104 = DIRECTION ( 'NONE',  ( -1.000000000000000000, 0.0000000000000000000, 0.0000000000000000000 ) ) ;
#105 = VERTEX_POINT ( 'NONE', #532 ) ;
#106 = PRODUCT ( 'E2919382-AC3A-4934-A943-9E0B176996FA', 'E2919382-AC3A-4934-A943-9E0B176996FA', '', ( #270 ) ) ;
#107 = DIRECTION ( 'NONE',  ( 1.000000000000000000, 0.0000000000000000000, 0.0000000000000000000 ) ) ;
#108 = VECTOR ( 'NONE', #49, 1000.000000000000000 ) ;
#109 = PRESENTATION_LAYER_ASSIGNMENT (  '', '', ( #278 ) ) ;
#110 = ORIENTED_EDGE ( 'NONE', *, *, #345, .F. ) ;
#111 = ORIENTED_EDGE ( 'NONE', *, *, #57, .F. ) ;
#112 = EDGE_CURVE ( 'NONE', #479, #92, #315, .T. ) ;
#113 = VERTEX_POINT ( 'NONE', #194 ) ;
#114 = FACE_OUTER_BOUND ( 'NONE', #312, .T. ) ;
#115 = CARTESIAN_POINT ( 'NONE',  ( 0.5200000000000000178, 0.2500000000000000000, -0.005000000000000000104 ) ) ;
#116 = COLOUR_RGB ( '',0.3529411764705882026, 0.3529411764705882026, 0.3529411764705882026 ) ;
#117 = CARTESIAN_POINT ( 'NONE',  ( -0.5000000000000000000, 0.2600000000000000089, -0.005000000000000000104 ) ) ;
#118 = CARTESIAN_POINT ( 'NONE',  ( 0.0000000000000000000, -0.2300000000000000377, 0.02000000000000000042 ) ) ;
#119 =( LENGTH_UNIT ( ) NAMED_UNIT ( * ) SI_UNIT ( .MILLI., .METRE. ) );
#120 = CARTESIAN_POINT ( 'NONE',  ( -0.2500000000000000000, -0.2299999999999999822, 0.02000000000000001429 ) ) ;
#121 =( LENGTH_UNIT ( ) NAMED_UNIT ( * ) SI_UNIT ( .MILLI., .METRE. ) );
#122 = FILL_AREA_STYLE_COLOUR ( '', #116 ) ;
#123 = LINE ( 'NONE', #37, #38 ) ;
#124 = FACE_OUTER_BOUND ( 'NONE', #444, .T. ) ;
#125 = ADVANCED_FACE ( 'NONE', ( #528, #307 ), #20, .T. ) ;
#126 = DIRECTION ( 'NONE',  ( -0.0000000000000000000, -0.0000000000000000000, -1.000000000000000000 ) ) ;
#127 = VECTOR ( 'NONE', #299, 1000.000000000000000 ) ;
#128 = ORIENTED_EDGE ( 'NONE', *, *, #235, .T. ) ;
#129 = LINE ( 'NONE', #36, #87 ) ;
#130 = ORIENTED_EDGE ( 'NONE', *, *, #235, .F. ) ;
#131 = CARTESIAN_POINT ( 'NONE',  ( 0.0000000000000000000, 0.2500000000000000000, 0.2500000000000000000 ) ) ;
#132 = STYLED_ITEM ( 'NONE', ( #303 ), #32 ) ;
#133 = ORIENTED_EDGE ( 'NONE', *, *, #337, .T. ) ;
#134 = LINE ( 'NONE', #470, #453 ) ;
#135 = VECTOR ( 'NONE', #522, 1000.000000000000000 ) ;
#136 = VECTOR ( 'NONE', #169, 1000.000000000000000 ) ;
#137 = EDGE_CURVE ( 'NONE', #386, #15, #311, .T. ) ;
#138 = VERTEX_POINT ( 'NONE', #492 ) ;
#139 = ORIENTED_EDGE ( 'NONE', *, *, #485, .F. ) ;
#140 = ORIENTED_EDGE ( 'NONE', *, *, #165, .T. ) ;
#141 = DIRECTION ( 'NONE',  ( 0.0000000000000000000, -1.000000000000000000, 0.0000000000000000000 ) ) ;
#142 = ORIENTED_EDGE ( 'NONE', *, *, #172, .T. ) ;
#143 = ORIENTED_EDGE ( 'NONE', *, *, #112, .T. ) ;
#144 = ORIENTED_EDGE ( 'NONE', *, *, #534, .F. ) ;
#145 = ORIENTED_EDGE ( 'NONE', *, *, #257, .T. ) ;
#146 = ADVANCED_FACE ( 'NONE', ( #124 ), #335, .F. ) ;
#147 =( NAMED_UNIT ( * ) SI_UNIT ( $, .STERADIAN. ) SOLID_ANGLE_UNIT ( ) );
#148 = PLANE ( 'NONE',  #277 ) ;
#149 = EDGE_LOOP ( 'NONE', ( #274, #62, #90, #301 ) ) ;
#150 = LINE ( 'NONE', #405, #368 ) ;
#151 = CARTESIAN_POINT ( 'NONE',  ( 0.2500000000000000000, 0.2300000000000000377, 0.1250000000000000000 ) ) ;
#152 = EDGE_LOOP ( 'NONE', ( #139, #398, #193, #426 ) ) ;
#153 = CARTESIAN_POINT ( 'NONE',  ( 0.2500000000000000000, -0.2299999999999999545, 0.2299999999999999822 ) ) ;
#154 = CARTESIAN_POINT ( 'NONE',  ( -0.2499999999999999445, 0.2299999999999999822, 0.02000000000000001082 ) ) ;
#155 = PRODUCT_RELATED_PRODUCT_CATEGORY ( 'part', '', ( #106 ) ) ;
#156 = CARTESIAN_POINT ( 'NONE',  ( -0.2600000000000000089, 0.2391999999999999960, 0.02000000000000000042 ) ) ;
#157 = LINE ( 'NONE', #214, #487 ) ;
#158 = CARTESIAN_POINT ( 'NONE',  ( 0.0000000000000000000, -0.2500000000000000000, 0.0000000000000000000 ) ) ;
#159 = PLANE ( 'NONE',  #412 ) ;
#160 = AXIS2_PLACEMENT_3D ( 'NONE', #117, #280, #541 ) ;
#161 = DIRECTION ( 'NONE',  ( -1.000000000000000000, -0.0000000000000000000, -0.0000000000000000000 ) ) ;
#162 = AXIS2_PLACEMENT_3D ( 'NONE', #213, #166, #505 ) ;
#163 = AXIS2_PLACEMENT_3D ( 'NONE', #276, #449, #72 ) ;
#164 = PRESENTATION_STYLE_ASSIGNMENT (( #180 ) ) ;
#165 = EDGE_CURVE ( 'NONE', #261, #525, #83, .T. ) ;
#166 = DIRECTION ( 'NONE',  ( 1.000000000000000000, 0.0000000000000000000, 0.0000000000000000000 ) ) ;
#167 = DIRECTION ( 'NONE',  ( -1.000000000000000000, 0.0000000000000000000, 0.0000000000000000000 ) ) ;
#168 = ORIENTED_EDGE ( 'NONE', *, *, #3, .F. ) ;
#169 = DIRECTION ( 'NONE',  ( -0.0000000000000000000, -0.0000000000000000000, -1.000000000000000000 ) ) ;
#170 = VECTOR ( 'NONE', #196, 1000.000000000000000 ) ;
#171 = DIRECTION ( 'NONE',  ( 0.0000000000000000000, 1.000000000000000000, 0.0000000000000000000 ) ) ;
#172 = EDGE_CURVE ( 'NONE', #527, #265, #514, .T. ) ;
#173 = COLOUR_RGB ( '',0.3529411764705882026, 0.3529411764705882026, 0.3529411764705882026 ) ;
#174 = VECTOR ( 'NONE', #504, 1000.000000000000000 ) ;
#175 = EDGE_LOOP ( 'NONE', ( #441, #445, #140, #510 ) ) ;
#176 = DIRECTION ( 'NONE',  ( -0.0000000000000000000, -1.000000000000000000, -0.0000000000000000000 ) ) ;
#177 = DIRECTION ( 'NONE',  ( 0.0000000000000000000, 0.0000000000000000000, 1.000000000000000000 ) ) ;
#178 = UNCERTAINTY_MEASURE_WITH_UNIT (LENGTH_MEASURE( 1.000000000000000082E-05 ), #47, 'distance_accuracy_value', 'NONE');
#179 = EDGE_LOOP ( 'NONE', ( #110, #432, #436, #95 ) ) ;
#180 = SURFACE_STYLE_USAGE ( .BOTH. , #223 ) ;
#181 = CARTESIAN_POINT ( 'NONE',  ( 0.5000000000000000000, 0.2500000000000000000, 0.2500000000000000000 ) ) ;
#182 =( GEOMETRIC_REPRESENTATION_CONTEXT ( 3 ) GLOBAL_UNCERTAINTY_ASSIGNED_CONTEXT ( ( #60 ) ) GLOBAL_UNIT_ASSIGNED_CONTEXT ( ( #287, #417, #74 ) ) REPRESENTATION_CONTEXT ( 'NONE', 'WORKASPACE' ) );
#183 = ORIENTED_EDGE ( 'NONE', *, *, #443, .F. ) ;
#184 = LINE ( 'NONE', #506, #245 ) ;
#185 = ORIENTED_EDGE ( 'NONE', *, *, #271, .F. ) ;
#186 = DIRECTION ( 'NONE',  ( 1.000000000000000000, -0.0000000000000000000, 0.0000000000000000000 ) ) ;
#187 = EDGE_CURVE ( 'NONE', #403, #240, #382, .T. ) ;
#188 = ORIENTED_EDGE ( 'NONE', *, *, #26, .T. ) ;
#189 = CARTESIAN_POINT ( 'NONE',  ( -0.2500000000000000000, -0.2600000000000000089, 0.2550000000000000044 ) ) ;
#190 = DIRECTION ( 'NONE',  ( 0.0000000000000000000, 0.0000000000000000000, -1.000000000000000000 ) ) ;
#191 = STYLED_ITEM ( 'NONE', ( #387 ), #380 ) ;
#192 = CARTESIAN_POINT ( 'NONE',  ( 0.5000000000000000000, 0.2500000000000000000, 0.1250000000000000000 ) ) ;
#193 = ORIENTED_EDGE ( 'NONE', *, *, #318, .T. ) ;
#194 = CARTESIAN_POINT ( 'NONE',  ( 0.2500000000000000000, 0.2500000000000000000, 0.2500000000000000000 ) ) ;
#195 = DIRECTION ( 'NONE',  ( -0.0000000000000000000, 0.0000000000000000000, 1.000000000000000000 ) ) ;
#196 = DIRECTION ( 'NONE',  ( 0.0000000000000000000, -1.000000000000000000, 0.0000000000000000000 ) ) ;
#197 = ORIENTED_EDGE ( 'NONE', *, *, #394, .F. ) ;
#198 = FACE_BOUND ( 'NONE', #179, .T. ) ;
#199 = EDGE_CURVE ( 'NONE', #240, #386, #339, .T. ) ;
#200 = LINE ( 'NONE', #415, #12 ) ;
#201 = PLANE ( 'NONE',  #389 ) ;
#202 = DIRECTION ( 'NONE',  ( 1.000000000000000000, 0.0000000000000000000, 0.0000000000000000000 ) ) ;
#203 = VECTOR ( 'NONE', #338, 1000.000000000000000 ) ;
#204 = PLANE ( 'NONE',  #526 ) ;
#205 = STYLED_ITEM ( 'NONE', ( #288 ), #471 ) ;
#206 = DIRECTION ( 'NONE',  ( 0.0000000000000000000, 0.0000000000000000000, -1.000000000000000000 ) ) ;
#207 = SURFACE_STYLE_USAGE ( .BOTH. , #75 ) ;
#208 = SURFACE_STYLE_USAGE ( .BOTH. , #30 ) ;
#209 = DIRECTION ( 'NONE',  ( 0.0000000000000000000, 0.0000000000000000000, 1.000000000000000000 ) ) ;
#210 = FACE_OUTER_BOUND ( 'NONE', #224, .T. ) ;
#211 = DIRECTION ( 'NONE',  ( -0.0000000000000000000, -0.0000000000000000000, 1.000000000000000000 ) ) ;
#212 = EDGE_CURVE ( 'NONE', #314, #229, #260, .T. ) ;
#213 = CARTESIAN_POINT ( 'NONE',  ( 0.5000000000000000000, -0.2600000000000000089, -0.005000000000000000104 ) ) ;
#214 = CARTESIAN_POINT ( 'NONE',  ( 0.2500000000000000000, 0.0000000000000000000, 0.2299999999999999822 ) ) ;
#215 = PRESENTATION_LAYER_ASSIGNMENT (  '', '', ( #132 ) ) ;
#216 = VECTOR ( 'NONE', #219, 1000.000000000000000 ) ;
#217 = UNCERTAINTY_MEASURE_WITH_UNIT (LENGTH_MEASURE( 1.000000000000000082E-05 ), #297, 'distance_accuracy_value', 'NONE');
#218 = CARTESIAN_POINT ( 'NONE',  ( -0.2500000000000000000, -0.2299999999999999545, 0.1249999999999999722 ) ) ;
#219 = DIRECTION ( 'NONE',  ( -0.0000000000000000000, -1.000000000000000000, -0.0000000000000000000 ) ) ;
#220 = EDGE_LOOP ( 'NONE', ( #357, #361, #133, #9 ) ) ;
#221 = DIRECTION ( 'NONE',  ( 0.0000000000000000000, 0.0000000000000000000, 1.000000000000000000 ) ) ;
#222 = AXIS2_PLACEMENT_3D ( 'NONE', #325, #79, #73 ) ;
#223 = SURFACE_SIDE_STYLE ('',( #421 ) ) ;
#224 = EDGE_LOOP ( 'NONE', ( #143, #477, #98, #70 ) ) ;
#225 = SHAPE_DEFINITION_REPRESENTATION ( #450, #330 ) ;
#226 = ORIENTED_EDGE ( 'NONE', *, *, #326, .T. ) ;
#227 = ADVANCED_FACE ( 'NONE', ( #343 ), #388, .F. ) ;
#228 = DIRECTION ( 'NONE',  ( 0.0000000000000000000, 1.000000000000000000, 0.0000000000000000000 ) ) ;
#229 = VERTEX_POINT ( 'NONE', #435 ) ;
#230 = VECTOR ( 'NONE', #360, 1000.000000000000000 ) ;
#231 =( LENGTH_UNIT ( ) NAMED_UNIT ( * ) SI_UNIT ( .MILLI., .METRE. ) );
#232 = VERTEX_POINT ( 'NONE', #401 ) ;
#233 = ORIENTED_EDGE ( 'NONE', *, *, #41, .F. ) ;
#234 = DIRECTION ( 'NONE',  ( 1.000000000000000000, 0.0000000000000000000, 0.0000000000000000000 ) ) ;
#235 = EDGE_CURVE ( 'NONE', #319, #314, #64, .T. ) ;
#236 = VECTOR ( 'NONE', #293, 1000.000000000000000 ) ;
#237 = ORIENTED_EDGE ( 'NONE', *, *, #8, .T. ) ;
#238 = FACE_OUTER_BOUND ( 'NONE', #4, .T. ) ;
#239 = MECHANICAL_DESIGN_GEOMETRIC_PRESENTATION_REPRESENTATION (  '', ( #191 ), #247 ) ;
#240 = VERTEX_POINT ( 'NONE', #395 ) ;
#241 = EDGE_CURVE ( 'NONE', #65, #92, #442, .T. ) ;
#242 = LINE ( 'NONE', #409, #358 ) ;
#243 = SURFACE_SIDE_STYLE ('',( #34 ) ) ;
#244 = LINE ( 'NONE', #411, #78 ) ;
#245 = VECTOR ( 'NONE', #126, 1000.000000000000000 ) ;
#246 = DIRECTION ( 'NONE',  ( 1.000000000000000000, 0.0000000000000000000, 0.0000000000000000000 ) ) ;
#247 =( GEOMETRIC_REPRESENTATION_CONTEXT ( 3 ) GLOBAL_UNCERTAINTY_ASSIGNED_CONTEXT ( ( #217 ) ) GLOBAL_UNIT_ASSIGNED_CONTEXT ( ( #297, #399, #147 ) ) REPRESENTATION_CONTEXT ( 'NONE', 'WORKASPACE' ) );
#248 = DIRECTION ( 'NONE',  ( 0.0000000000000000000, 0.0000000000000000000, -1.000000000000000000 ) ) ;
#249 = ADVANCED_FACE ( 'NONE', ( #529 ), #148, .T. ) ;
#250 =( NAMED_UNIT ( * ) SI_UNIT ( $, .STERADIAN. ) SOLID_ANGLE_UNIT ( ) );
#251 = FACE_OUTER_BOUND ( 'NONE', #220, .T. ) ;
#252 = CARTESIAN_POINT ( 'NONE',  ( -0.2500000000000000000, 0.2500000000000000000, 1.482307657695025593E-18 ) ) ;
#253 = CARTESIAN_POINT ( 'NONE',  ( -0.2600000000000000089, -0.2391999999999999960, 0.2299999999999999822 ) ) ;
#254 = LINE ( 'NONE', #292, #255 ) ;
#255 = VECTOR ( 'NONE', #508, 1000.000000000000000 ) ;
#256 = LINE ( 'NONE', #218, #174 ) ;
#257 = EDGE_CURVE ( 'NONE', #403, #469, #157, .T. ) ;
#258 = CARTESIAN_POINT ( 'NONE',  ( 0.5000000000000000000, 0.2500000000000000000, 2.117582368135750848E-19 ) ) ;
#259 = SURFACE_STYLE_FILL_AREA ( #48 ) ;
#260 = LINE ( 'NONE', #131, #127 ) ;
#261 = VERTEX_POINT ( 'NONE', #456 ) ;
#262 = AXIS2_PLACEMENT_3D ( 'NONE', #189, #186, #356 ) ;
#263 = ADVANCED_FACE ( 'NONE', ( #535 ), #77, .T. ) ;
#264 = PLANE ( 'NONE',  #162 ) ;
#265 = VERTEX_POINT ( 'NONE', #285 ) ;
#266 = LINE ( 'NONE', #437, #269 ) ;
#267 = VERTEX_POINT ( 'NONE', #120 ) ;
#268 = ORIENTED_EDGE ( 'NONE', *, *, #137, .T. ) ;
#269 = VECTOR ( 'NONE', #56, 1000.000000000000000 ) ;
#270 = PRODUCT_CONTEXT ( 'NONE', #521, 'mechanical' ) ;
#271 = EDGE_CURVE ( 'NONE', #65, #261, #374, .T. ) ;
#272 = EDGE_LOOP ( 'NONE', ( #464, #384, #142, #392 ) ) ;
#273 = EDGE_LOOP ( 'NONE', ( #402, #340, #128, #364 ) ) ;
#274 = ORIENTED_EDGE ( 'NONE', *, *, #137, .F. ) ;
#275 = UNCERTAINTY_MEASURE_WITH_UNIT (LENGTH_MEASURE( 1.000000000000000082E-05 ), #121, 'distance_accuracy_value', 'NONE');
#276 = CARTESIAN_POINT ( 'NONE',  ( -0.5200000000000000178, -0.2600000000000000089, 0.2500000000000000000 ) ) ;
#277 = AXIS2_PLACEMENT_3D ( 'NONE', #13, #475, #104 ) ;
#278 = STYLED_ITEM ( 'NONE', ( #164 ), #330 ) ;
#279 = DIRECTION ( 'NONE',  ( 1.000000000000000000, 0.0000000000000000000, 0.0000000000000000000 ) ) ;
#280 = DIRECTION ( 'NONE',  ( -1.000000000000000000, 0.0000000000000000000, 0.0000000000000000000 ) ) ;
#281 = DIRECTION ( 'NONE',  ( 1.000000000000000000, 0.0000000000000000000, 0.0000000000000000000 ) ) ;
#282 = PLANE ( 'NONE',  #500 ) ;
#283 = DIRECTION ( 'NONE',  ( 0.0000000000000000000, 0.0000000000000000000, -1.000000000000000000 ) ) ;
#284 = ADVANCED_FACE ( 'NONE', ( #35 ), #159, .T. ) ;
#285 = CARTESIAN_POINT ( 'NONE',  ( -0.5000000000000000000, -0.2500000000000000000, 1.058791184067875424E-19 ) ) ;
#286 = AXIS2_PLACEMENT_3D ( 'NONE', #347, #141, #190 ) ;
#287 =( LENGTH_UNIT ( ) NAMED_UNIT ( * ) SI_UNIT ( .MILLI., .METRE. ) );
#288 = PRESENTATION_STYLE_ASSIGNMENT (( #208 ) ) ;
#289 = CARTESIAN_POINT ( 'NONE',  ( -0.2500000000000000000, 0.2500000000000000000, 0.2500000000000000000 ) ) ;
#290 = SURFACE_STYLE_FILL_AREA ( #503 ) ;
#291 = EDGE_CURVE ( 'NONE', #232, #15, #451, .T. ) ;
#292 = CARTESIAN_POINT ( 'NONE',  ( -0.5000000000000000000, 0.0000000000000000000, 0.2500000000000000000 ) ) ;
#293 = DIRECTION ( 'NONE',  ( 1.000000000000000000, -0.0000000000000000000, -0.0000000000000000000 ) ) ;
#294 = PRODUCT_DEFINITION_FORMATION_WITH_SPECIFIED_SOURCE ( 'ANY', '', #106, .NOT_KNOWN. ) ;
#295 = CARTESIAN_POINT ( 'NONE',  ( 0.5000000000000000000, -0.2500000000000000000, 0.2500000000000000000 ) ) ;
#296 = ORIENTED_EDGE ( 'NONE', *, *, #524, .F. ) ;
#297 =( LENGTH_UNIT ( ) NAMED_UNIT ( * ) SI_UNIT ( .MILLI., .METRE. ) );
#298 = EDGE_CURVE ( 'NONE', #319, #105, #242, .T. ) ;
#299 = DIRECTION ( 'NONE',  ( -1.000000000000000000, 0.0000000000000000000, 0.0000000000000000000 ) ) ;
#300 =( GEOMETRIC_REPRESENTATION_CONTEXT ( 3 ) GLOBAL_UNCERTAINTY_ASSIGNED_CONTEXT ( ( #275 ) ) GLOBAL_UNIT_ASSIGNED_CONTEXT ( ( #121, #329, #459 ) ) REPRESENTATION_CONTEXT ( 'NONE', 'WORKASPACE' ) );
#301 = ORIENTED_EDGE ( 'NONE', *, *, #291, .T. ) ;
#302 = VERTEX_POINT ( 'NONE', #252 ) ;
#303 = PRESENTATION_STYLE_ASSIGNMENT (( #2 ) ) ;
#304 = ORIENTED_EDGE ( 'NONE', *, *, #362, .T. ) ;
#305 = ADVANCED_FACE ( 'NONE', ( #27 ), #419, .T. ) ;
#306 = ORIENTED_EDGE ( 'NONE', *, *, #199, .F. ) ;
#307 = FACE_OUTER_BOUND ( 'NONE', #18, .T. ) ;
#308 = LINE ( 'NONE', #543, #431 ) ;
#309 = ORIENTED_EDGE ( 'NONE', *, *, #390, .T. ) ;
#310 = VECTOR ( 'NONE', #161, 1000.000000000000000 ) ;
#311 = LINE ( 'NONE', #480, #348 ) ;
#312 = EDGE_LOOP ( 'NONE', ( #144, #226, #523, #482 ) ) ;
#313 = UNCERTAINTY_MEASURE_WITH_UNIT (LENGTH_MEASURE( 1.000000000000000082E-05 ), #513, 'distance_accuracy_value', 'NONE');
#314 = VERTEX_POINT ( 'NONE', #289 ) ;
#315 = LINE ( 'NONE', #66, #135 ) ;
#316 = SURFACE_STYLE_USAGE ( .BOTH. , #243 ) ;
#317 = CARTESIAN_POINT ( 'NONE',  ( 0.5000000000000000000, -0.2500000000000000000, 0.1250000000000000000 ) ) ;
#318 = EDGE_CURVE ( 'NONE', #314, #302, #200, .T. ) ;
#319 = VERTEX_POINT ( 'NONE', #502 ) ;
#320 = DIRECTION ( 'NONE',  ( 0.0000000000000000000, 0.0000000000000000000, 1.000000000000000000 ) ) ;
#321 = VECTOR ( 'NONE', #283, 1000.000000000000000 ) ;
#322 = FACE_OUTER_BOUND ( 'NONE', #272, .T. ) ;
#323 = LINE ( 'NONE', #118, #430 ) ;
#324 = PLANE ( 'NONE',  #397 ) ;
#325 = CARTESIAN_POINT ( 'NONE',  ( -0.5200000000000000178, -0.2500000000000000000, -0.005000000000000000104 ) ) ;
#326 = EDGE_CURVE ( 'NONE', #267, #138, #323, .T. ) ;
#327 = FILL_AREA_STYLE ('',( #489 ) ) ;
#328 = DIRECTION ( 'NONE',  ( -1.000000000000000000, -0.0000000000000000000, -0.0000000000000000000 ) ) ;
#329 =( NAMED_UNIT ( * ) PLANE_ANGLE_UNIT ( ) SI_UNIT ( $, .RADIAN. ) );
#330 = ADVANCED_BREP_SHAPE_REPRESENTATION ( 'E2919382-AC3A-4934-A943-9E0B176996FA', ( #32, #334 ), #333 ) ;
#331 = AXIS2_PLACEMENT_3D ( 'NONE', #5, #177, #234 ) ;
#332 = LINE ( 'NONE', #317, #85 ) ;
#333 =( GEOMETRIC_REPRESENTATION_CONTEXT ( 3 ) GLOBAL_UNCERTAINTY_ASSIGNED_CONTEXT ( ( #178 ) ) GLOBAL_UNIT_ASSIGNED_CONTEXT ( ( #47, #425, #511 ) ) REPRESENTATION_CONTEXT ( 'NONE', 'WORKASPACE' ) );
#334 = AXIS2_PLACEMENT_3D ( 'NONE', #17, #346, #107 ) ;
#335 = PLANE ( 'NONE',  #478 ) ;
#336 = LINE ( 'NONE', #393, #539 ) ;
#337 = EDGE_CURVE ( 'NONE', #373, #65, #123, .T. ) ;
#338 = DIRECTION ( 'NONE',  ( 1.000000000000000000, 0.0000000000000000000, 0.0000000000000000000 ) ) ;
#339 = LINE ( 'NONE', #45, #516 ) ;
#340 = ORIENTED_EDGE ( 'NONE', *, *, #298, .F. ) ;
#341 = CARTESIAN_POINT ( 'NONE',  ( 0.2500000000000000555, -0.2500000000000000000, 2.858736196983263644E-18 ) ) ;
#342 = CARTESIAN_POINT ( 'NONE',  ( 0.0000000000000000000, 0.2500000000000000000, 8.470329472543003391E-19 ) ) ;
#343 = FACE_OUTER_BOUND ( 'NONE', #476, .T. ) ;
#344 = ORIENTED_EDGE ( 'NONE', *, *, #507, .T. ) ;
#345 = EDGE_CURVE ( 'NONE', #469, #232, #494, .T. ) ;
#346 = DIRECTION ( 'NONE',  ( 0.0000000000000000000, 0.0000000000000000000, 1.000000000000000000 ) ) ;
#347 = CARTESIAN_POINT ( 'NONE',  ( -0.2600000000000000089, 0.2299999999999999822, 0.2341999999999999638 ) ) ;
#348 = VECTOR ( 'NONE', #84, 1000.000000000000000 ) ;
#349 = ORIENTED_EDGE ( 'NONE', *, *, #8, .F. ) ;
#350 = LINE ( 'NONE', #518, #422 ) ;
#351 = ORIENTED_EDGE ( 'NONE', *, *, #318, .F. ) ;
#352 = EDGE_CURVE ( 'NONE', #138, #403, #244, .T. ) ;
#353 = ORIENTED_EDGE ( 'NONE', *, *, #53, .F. ) ;
#354 = SURFACE_SIDE_STYLE ('',( #88 ) ) ;
#355 = EDGE_LOOP ( 'NONE', ( #472, #23, #111, #233 ) ) ;
#356 = DIRECTION ( 'NONE',  ( 0.0000000000000000000, 0.0000000000000000000, -1.000000000000000000 ) ) ;
#357 = ORIENTED_EDGE ( 'NONE', *, *, #112, .F. ) ;
#358 = VECTOR ( 'NONE', #365, 1000.000000000000000 ) ;
#359 = COLOUR_RGB ( '',0.3529411764705882026, 0.3529411764705882026, 0.3529411764705882026 ) ;
#360 = DIRECTION ( 'NONE',  ( 0.0000000000000000000, 0.0000000000000000000, 1.000000000000000000 ) ) ;
#361 = ORIENTED_EDGE ( 'NONE', *, *, #362, .F. ) ;
#362 = EDGE_CURVE ( 'NONE', #373, #479, #332, .T. ) ;
#363 = LINE ( 'NONE', #406, #497 ) ;
#364 = ORIENTED_EDGE ( 'NONE', *, *, #212, .T. ) ;
#365 = DIRECTION ( 'NONE',  ( -1.000000000000000000, -0.0000000000000000000, -0.0000000000000000000 ) ) ;
#366 = MECHANICAL_DESIGN_GEOMETRIC_PRESENTATION_REPRESENTATION (  '', ( #29 ), #182 ) ;
#367 = CARTESIAN_POINT ( 'NONE',  ( 0.2500000000000000000, -0.2600000000000000089, 0.2550000000000000044 ) ) ;
#368 = VECTOR ( 'NONE', #320, 1000.000000000000000 ) ;
#369 = CARTESIAN_POINT ( 'NONE',  ( -0.2500000000000000000, 0.0000000000000000000, 0.02000000000000000042 ) ) ;
#370 = ADVANCED_FACE ( 'NONE', ( #28 ), #204, .T. ) ;
#371 = PRESENTATION_STYLE_ASSIGNMENT (( #207 ) ) ;
#372 = FACE_OUTER_BOUND ( 'NONE', #175, .T. ) ;
#373 = VERTEX_POINT ( 'NONE', #544 ) ;
#374 = LINE ( 'NONE', #416, #509 ) ;
#375 = FILL_AREA_STYLE_COLOUR ( '', #173 ) ;
#376 = DIRECTION ( 'NONE',  ( 1.000000000000000000, -0.0000000000000000000, 0.0000000000000000000 ) ) ;
#377 = PLANE ( 'NONE',  #286 ) ;
#378 = COLOUR_RGB ( '',0.7529411764705882248, 0.7529411764705882248, 0.7529411764705882248 ) ;
#379 = DIRECTION ( 'NONE',  ( 0.0000000000000000000, 1.000000000000000000, 0.0000000000000000000 ) ) ;
#380 = ADVANCED_FACE ( 'NONE', ( #496 ), #377, .F. ) ;
#381 = CARTESIAN_POINT ( 'NONE',  ( 0.0000000000000000000, -0.2500000000000000000, 0.0000000000000000000 ) ) ;
#382 = LINE ( 'NONE', #428, #108 ) ;
#383 = UNCERTAINTY_MEASURE_WITH_UNIT (LENGTH_MEASURE( 1.000000000000000082E-05 ), #119, 'distance_accuracy_value', 'NONE');
#384 = ORIENTED_EDGE ( 'NONE', *, *, #485, .T. ) ;
#385 = DIRECTION ( 'NONE',  ( 1.000000000000000000, 0.0000000000000000000, 0.0000000000000000000 ) ) ;
#386 = VERTEX_POINT ( 'NONE', #515 ) ;
#387 = PRESENTATION_STYLE_ASSIGNMENT (( #43 ) ) ;
#388 = PLANE ( 'NONE',  #331 ) ;
#389 = AXIS2_PLACEMENT_3D ( 'NONE', #156, #195, #545 ) ;
#390 = EDGE_CURVE ( 'NONE', #302, #520, #308, .T. ) ;
#391 = FILL_AREA_STYLE_COLOUR ( '', #96 ) ;
#392 = ORIENTED_EDGE ( 'NONE', *, *, #101, .T. ) ;
#393 = CARTESIAN_POINT ( 'NONE',  ( 0.0000000000000000000, 0.2500000000000000000, 0.2500000000000000000 ) ) ;
#394 = EDGE_CURVE ( 'NONE', #520, #265, #536, .T. ) ;
#395 = CARTESIAN_POINT ( 'NONE',  ( -0.2500000000000000000, -0.2299999999999999545, 0.2299999999999999822 ) ) ;
#396 = AXIS2_PLACEMENT_3D ( 'NONE', #11, #221, #385 ) ;
#397 = AXIS2_PLACEMENT_3D ( 'NONE', #367, #376, #499 ) ;
#398 = ORIENTED_EDGE ( 'NONE', *, *, #212, .F. ) ;
#399 =( NAMED_UNIT ( * ) PLANE_ANGLE_UNIT ( ) SI_UNIT ( $, .RADIAN. ) );
#400 = EDGE_LOOP ( 'NONE', ( #304, #168, #183, #512 ) ) ;
#401 = CARTESIAN_POINT ( 'NONE',  ( 0.2500000000000000000, 0.2299999999999999822, 0.02000000000000001082 ) ) ;
#402 = ORIENTED_EDGE ( 'NONE', *, *, #501, .F. ) ;
#403 = VERTEX_POINT ( 'NONE', #153 ) ;
#404 =( GEOMETRIC_REPRESENTATION_CONTEXT ( 3 ) GLOBAL_UNCERTAINTY_ASSIGNED_CONTEXT ( ( #313 ) ) GLOBAL_UNIT_ASSIGNED_CONTEXT ( ( #513, #80, #250 ) ) REPRESENTATION_CONTEXT ( 'NONE', 'WORKASPACE' ) );
#405 = CARTESIAN_POINT ( 'NONE',  ( 0.2500000000000001110, -0.2500000000000000000, 0.1250000000000000000 ) ) ;
#406 = CARTESIAN_POINT ( 'NONE',  ( 0.0000000000000000000, -0.2500000000000000000, 0.2500000000000000000 ) ) ;
#407 = ORIENTED_EDGE ( 'NONE', *, *, #337, .F. ) ;
#408 = PRESENTATION_STYLE_ASSIGNMENT (( #316 ) ) ;
#409 = CARTESIAN_POINT ( 'NONE',  ( 0.0000000000000000000, -0.2500000000000000000, 0.2500000000000000000 ) ) ;
#410 =( NAMED_UNIT ( * ) SI_UNIT ( $, .STERADIAN. ) SOLID_ANGLE_UNIT ( ) );
#411 = CARTESIAN_POINT ( 'NONE',  ( 0.2500000000000000000, -0.2299999999999999545, 0.1250000000000000000 ) ) ;
#412 = AXIS2_PLACEMENT_3D ( 'NONE', #81, #537, #279 ) ;
#413 = SURFACE_STYLE_FILL_AREA ( #495 ) ;
#414 = PRESENTATION_LAYER_ASSIGNMENT (  '', '', ( #40 ) ) ;
#415 = CARTESIAN_POINT ( 'NONE',  ( -0.2500000000000000000, 0.2500000000000000000, 0.1250000000000000000 ) ) ;
#416 = CARTESIAN_POINT ( 'NONE',  ( 0.0000000000000000000, 0.2500000000000000000, 0.0000000000000000000 ) ) ;
#417 =( NAMED_UNIT ( * ) PLANE_ANGLE_UNIT ( ) SI_UNIT ( $, .RADIAN. ) );
#418 = CARTESIAN_POINT ( 'NONE',  ( -0.2600000000000000089, -0.2299999999999999822, 0.01580000000000000154 ) ) ;
#419 = PLANE ( 'NONE',  #222 ) ;
#420 = PRODUCT_DEFINITION ( 'UNKNOWN', '', #294, #100 ) ;
#421 = SURFACE_STYLE_FILL_AREA ( #465 ) ;
#422 = VECTOR ( 'NONE', #102, 1000.000000000000000 ) ;
#423 = SURFACE_SIDE_STYLE ('',( #259 ) ) ;
#424 = PRESENTATION_LAYER_ASSIGNMENT (  '', '', ( #205 ) ) ;
#425 =( NAMED_UNIT ( * ) PLANE_ANGLE_UNIT ( ) SI_UNIT ( $, .RADIAN. ) );
#426 = ORIENTED_EDGE ( 'NONE', *, *, #26, .F. ) ;
#427 = LINE ( 'NONE', #86, #14 ) ;
#428 = CARTESIAN_POINT ( 'NONE',  ( 0.0000000000000000000, -0.2299999999999999822, 0.2299999999999999822 ) ) ;
#429 = CARTESIAN_POINT ( 'NONE',  ( -0.2499999999999998890, -0.2500000000000000000, 1.376428539288238051E-18 ) ) ;
#430 = VECTOR ( 'NONE', #281, 1000.000000000000000 ) ;
#431 = VECTOR ( 'NONE', #454, 1000.000000000000000 ) ;
#432 = ORIENTED_EDGE ( 'NONE', *, *, #257, .F. ) ;
#433 = ADVANCED_FACE ( 'NONE', ( #210 ), #447, .T. ) ;
#434 = FACE_OUTER_BOUND ( 'NONE', #25, .T. ) ;
#435 = CARTESIAN_POINT ( 'NONE',  ( -0.5000000000000000000, 0.2500000000000000000, 0.2500000000000000000 ) ) ;
#436 = ORIENTED_EDGE ( 'NONE', *, *, #352, .F. ) ;
#437 = CARTESIAN_POINT ( 'NONE',  ( -0.5000000000000000000, -0.2500000000000000000, 0.1250000000000000000 ) ) ;
#438 = APPLICATION_PROTOCOL_DEFINITION ( 'draft international standard', 'automotive_design', 1998, #10 ) ;
#439 = VECTOR ( 'NONE', #228, 1000.000000000000000 ) ;
#440 =( GEOMETRIC_REPRESENTATION_CONTEXT ( 3 ) GLOBAL_UNCERTAINTY_ASSIGNED_CONTEXT ( ( #383 ) ) GLOBAL_UNIT_ASSIGNED_CONTEXT ( ( #119, #540, #410 ) ) REPRESENTATION_CONTEXT ( 'NONE', 'WORKASPACE' ) );
#441 = ORIENTED_EDGE ( 'NONE', *, *, #94, .F. ) ;
#442 = LINE ( 'NONE', #192, #230 ) ;
#443 = EDGE_CURVE ( 'NONE', #525, #474, #150, .T. ) ;
#444 = EDGE_LOOP ( 'NONE', ( #306, #467, #145, #55 ) ) ;
#445 = ORIENTED_EDGE ( 'NONE', *, *, #57, .T. ) ;
#446 = VECTOR ( 'NONE', #89, 1000.000000000000000 ) ;
#447 = PLANE ( 'NONE',  #163 ) ;
#448 = ADVANCED_FACE ( 'NONE', ( #238 ), #201, .F. ) ;
#449 = DIRECTION ( 'NONE',  ( 0.0000000000000000000, 0.0000000000000000000, 1.000000000000000000 ) ) ;
#450 = PRODUCT_DEFINITION_SHAPE ( 'NONE', 'NONE',  #420 ) ;
#451 = LINE ( 'NONE', #71, #310 ) ;
#452 = CARTESIAN_POINT ( 'NONE',  ( -0.5200000000000000178, -0.2600000000000000089, 0.2500000000000000000 ) ) ;
#453 = VECTOR ( 'NONE', #99, 1000.000000000000000 ) ;
#454 = DIRECTION ( 'NONE',  ( -0.0000000000000000000, -1.000000000000000000, -0.0000000000000000000 ) ) ;
#455 = PRESENTATION_LAYER_ASSIGNMENT (  '', '', ( #191 ) ) ;
#456 = CARTESIAN_POINT ( 'NONE',  ( 0.2500000000000000000, 0.2500000000000000000, 2.752857078576476102E-18 ) ) ;
#457 = DIRECTION ( 'NONE',  ( 0.0000000000000000000, 1.000000000000000000, -0.0000000000000000000 ) ) ;
#458 = ADVANCED_FACE ( 'NONE', ( #198, #372 ), #324, .F. ) ;
#459 =( NAMED_UNIT ( * ) SI_UNIT ( $, .STERADIAN. ) SOLID_ANGLE_UNIT ( ) );
#460 = LINE ( 'NONE', #381, #203 ) ;
#461 = PRESENTATION_LAYER_ASSIGNMENT (  '', '', ( #29 ) ) ;
#462 = FILL_AREA_STYLE_COLOUR ( '', #378 ) ;
#463 = CARTESIAN_POINT ( 'NONE',  ( -0.5000000000000000000, 0.2500000000000000000, 3.176373552203626272E-19 ) ) ;
#464 = ORIENTED_EDGE ( 'NONE', *, *, #501, .T. ) ;
#465 = FILL_AREA_STYLE ('',( #391 ) ) ;
#466 = CARTESIAN_POINT ( 'NONE',  ( -0.5000000000000000000, 0.0000000000000000000, 0.0000000000000000000 ) ) ;
#467 = ORIENTED_EDGE ( 'NONE', *, *, #187, .F. ) ;
#468 = CLOSED_SHELL ( 'NONE', ( #69, #249, #33, #284, #458, #433, #448, #380, #146, #471, #125, #263, #370, #305, #227, #19 ) ) ;
#469 = VERTEX_POINT ( 'NONE', #493 ) ;
#470 = CARTESIAN_POINT ( 'NONE',  ( 0.0000000000000000000, 0.2299999999999999822, 0.2299999999999999822 ) ) ;
#471 = ADVANCED_FACE ( 'NONE', ( #114 ), #282, .F. ) ;
#472 = ORIENTED_EDGE ( 'NONE', *, *, #241, .F. ) ;
#473 =( NAMED_UNIT ( * ) PLANE_ANGLE_UNIT ( ) SI_UNIT ( $, .RADIAN. ) );
#474 = VERTEX_POINT ( 'NONE', #93 ) ;
#475 = DIRECTION ( 'NONE',  ( 0.0000000000000000000, 1.000000000000000000, -0.0000000000000000000 ) ) ;
#476 = EDGE_LOOP ( 'NONE', ( #6, #188, #309, #483 ) ) ;
#477 = ORIENTED_EDGE ( 'NONE', *, *, #41, .T. ) ;
#478 = AXIS2_PLACEMENT_3D ( 'NONE', #253, #206, #538 ) ;
#479 = VERTEX_POINT ( 'NONE', #295 ) ;
#480 = CARTESIAN_POINT ( 'NONE',  ( -0.2499999999999998890, 0.2299999999999999545, 0.1249999999999999445 ) ) ;
#481 = ORIENTED_EDGE ( 'NONE', *, *, #534, .T. ) ;
#482 = ORIENTED_EDGE ( 'NONE', *, *, #187, .T. ) ;
#483 = ORIENTED_EDGE ( 'NONE', *, *, #394, .T. ) ;
#484 = DIRECTION ( 'NONE',  ( 0.0000000000000000000, 0.0000000000000000000, 1.000000000000000000 ) ) ;
#485 = EDGE_CURVE ( 'NONE', #229, #527, #1, .T. ) ;
#486 = ORIENTED_EDGE ( 'NONE', *, *, #298, .T. ) ;
#487 = VECTOR ( 'NONE', #542, 1000.000000000000000 ) ;
#488 = MECHANICAL_DESIGN_GEOMETRIC_PRESENTATION_REPRESENTATION (  '', ( #205 ), #300 ) ;
#489 = FILL_AREA_STYLE_COLOUR ( '', #359 ) ;
#490 = PLANE ( 'NONE',  #160 ) ;
#491 = DIRECTION ( 'NONE',  ( -1.000000000000000000, 0.0000000000000000000, 0.0000000000000000000 ) ) ;
#492 = CARTESIAN_POINT ( 'NONE',  ( 0.2500000000000000000, -0.2299999999999999822, 0.02000000000000000389 ) ) ;
#493 = CARTESIAN_POINT ( 'NONE',  ( 0.2500000000000000000, 0.2300000000000000100, 0.2299999999999999822 ) ) ;
#494 = LINE ( 'NONE', #151, #321 ) ;
#495 = FILL_AREA_STYLE ('',( #122 ) ) ;
#496 = FACE_OUTER_BOUND ( 'NONE', #149, .T. ) ;
#497 = VECTOR ( 'NONE', #202, 1000.000000000000000 ) ;
#498 = AXIS2_PLACEMENT_3D ( 'NONE', #115, #457, #491 ) ;
#499 = DIRECTION ( 'NONE',  ( 0.0000000000000000000, 0.0000000000000000000, -1.000000000000000000 ) ) ;
#500 = AXIS2_PLACEMENT_3D ( 'NONE', #418, #379, #39 ) ;
#501 = EDGE_CURVE ( 'NONE', #105, #229, #254, .T. ) ;
#502 = CARTESIAN_POINT ( 'NONE',  ( -0.2499999999999998890, -0.2500000000000000000, 0.2500000000000000000 ) ) ;
#503 = FILL_AREA_STYLE ('',( #375 ) ) ;
#504 = DIRECTION ( 'NONE',  ( 0.0000000000000000000, 0.0000000000000000000, 1.000000000000000000 ) ) ;
#505 = DIRECTION ( 'NONE',  ( 0.0000000000000000000, 1.000000000000000000, 0.0000000000000000000 ) ) ;
#506 = CARTESIAN_POINT ( 'NONE',  ( 0.2499999999999998890, 0.2500000000000000000, 0.1250000000000000000 ) ) ;
#507 = EDGE_CURVE ( 'NONE', #232, #138, #427, .T. ) ;
#508 = DIRECTION ( 'NONE',  ( 0.0000000000000000000, 1.000000000000000000, 0.0000000000000000000 ) ) ;
#509 = VECTOR ( 'NONE', #328, 1000.000000000000000 ) ;
#510 = ORIENTED_EDGE ( 'NONE', *, *, #443, .T. ) ;
#511 =( NAMED_UNIT ( * ) SI_UNIT ( $, .STERADIAN. ) SOLID_ANGLE_UNIT ( ) );
#512 = ORIENTED_EDGE ( 'NONE', *, *, #53, .T. ) ;
#513 =( LENGTH_UNIT ( ) NAMED_UNIT ( * ) SI_UNIT ( .MILLI., .METRE. ) );
#514 = LINE ( 'NONE', #466, #216 ) ;
#515 = CARTESIAN_POINT ( 'NONE',  ( -0.2500000000000000000, 0.2300000000000000100, 0.2299999999999999545 ) ) ;
#516 = VECTOR ( 'NONE', #171, 1000.000000000000000 ) ;
#517 = EDGE_LOOP ( 'NONE', ( #268, #237, #481, #46 ) ) ;
#518 = CARTESIAN_POINT ( 'NONE',  ( 0.2500000000000000000, 0.0000000000000000000, 0.2500000000000000000 ) ) ;
#519 = ORIENTED_EDGE ( 'NONE', *, *, #390, .F. ) ;
#520 = VERTEX_POINT ( 'NONE', #429 ) ;
#521 = APPLICATION_CONTEXT ( 'automotive_design' ) ;
#522 = DIRECTION ( 'NONE',  ( 0.0000000000000000000, 1.000000000000000000, 0.0000000000000000000 ) ) ;
#523 = ORIENTED_EDGE ( 'NONE', *, *, #352, .T. ) ;
#524 = EDGE_CURVE ( 'NONE', #520, #319, #129, .T. ) ;
#525 = VERTEX_POINT ( 'NONE', #341 ) ;
#526 = AXIS2_PLACEMENT_3D ( 'NONE', #452, #209, #246 ) ;
#527 = VERTEX_POINT ( 'NONE', #463 ) ;
#528 = FACE_BOUND ( 'NONE', #517, .T. ) ;
#529 = FACE_OUTER_BOUND ( 'NONE', #355, .T. ) ;
#530 = UNCERTAINTY_MEASURE_WITH_UNIT (LENGTH_MEASURE( 1.000000000000000082E-05 ), #231, 'distance_accuracy_value', 'NONE');
#531 = ORIENTED_EDGE ( 'NONE', *, *, #101, .F. ) ;
#532 = CARTESIAN_POINT ( 'NONE',  ( -0.5000000000000000000, -0.2500000000000000000, 0.2500000000000000000 ) ) ;
#533 = DIRECTION ( 'NONE',  ( -1.000000000000000000, -0.0000000000000000000, -0.0000000000000000000 ) ) ;
#534 = EDGE_CURVE ( 'NONE', #267, #240, #256, .T. ) ;
#535 = FACE_OUTER_BOUND ( 'NONE', #152, .T. ) ;
#536 = LINE ( 'NONE', #158, #52 ) ;
#537 = DIRECTION ( 'NONE',  ( 0.0000000000000000000, -1.000000000000000000, 0.0000000000000000000 ) ) ;
#538 = DIRECTION ( 'NONE',  ( 0.0000000000000000000, 1.000000000000000000, 0.0000000000000000000 ) ) ;
#539 = VECTOR ( 'NONE', #167, 1000.000000000000000 ) ;
#540 =( NAMED_UNIT ( * ) PLANE_ANGLE_UNIT ( ) SI_UNIT ( $, .RADIAN. ) );
#541 = DIRECTION ( 'NONE',  ( 0.0000000000000000000, -1.000000000000000000, 0.0000000000000000000 ) ) ;
#542 = DIRECTION ( 'NONE',  ( 0.0000000000000000000, 1.000000000000000000, 0.0000000000000000000 ) ) ;
#543 = CARTESIAN_POINT ( 'NONE',  ( -0.2500000000000000000, 0.0000000000000000000, 1.101142831430590441E-17 ) ) ;
#544 = CARTESIAN_POINT ( 'NONE',  ( 0.5000000000000000000, -0.2500000000000000000, 3.176373552203626272E-19 ) ) ;
#545 = DIRECTION ( 'NONE',  ( 0.0000000000000000000, -1.000000000000000000, 0.0000000000000000000 ) ) ;
#546 = FILL_AREA_STYLE_COLOUR ( '', #51 ) ;
ENDSEC;
END-ISO-10303-21;
